<svg fill="mainColor" width="0" height="0" viewBox="-4.8 -4.8 33.60 33.60">
      <path
        transform="translate(-4.8, -4.8), scale(2.1)"
        fill="backgroundColor"
        d="M9.166.33a2.25 2.25 0 00-2.332 0l-5.25 3.182A2.25 2.25 0 00.5 5.436v5.128a2.25 2.25 0 001.084 1.924l5.25 3.182a2.25 2.25 0 002.332 0l5.25-3.182a2.25 2.25 0 001.084-1.924V5.436a2.25 2.25 0 00-1.084-1.924L9.166.33z"
        stroke-width="0"
      ></path>
      <path d="M2,21h8a1,1,0,0,0,0-2H3.071A7.011,7.011,0,0,1,10,13a5.044,5.044,0,1,0-3.377-1.337A9.01,9.01,0,0,0,1,20,1,1,0,0,0,2,21ZM10,5A3,3,0,1,1,7,8,3,3,0,0,1,10,5ZM23,16a1,1,0,0,1-1,1H19v3a1,1,0,0,1-2,0V17H14a1,1,0,0,1,0-2h3V12a1,1,0,0,1,2,0v3h3A1,1,0,0,1,23,16Z"></path>
    </svg>