<svg width="0" height="0" viewBox="-6.4 -6.4 44.80 44.80" fill="mainColor" >
      <path
      fill="backgroundColor"
        transform="translate(-6.4, -6.4), scale(2.8)"
        d="M9.166.33a2.25 2.25 0 00-2.332 0l-5.25 3.182A2.25 2.25 0 00.5 5.436v5.128a2.25 2.25 0 001.084 1.924l5.25 3.182a2.25 2.25 0 002.332 0l5.25-3.182a2.25 2.25 0 001.084-1.924V5.436a2.25 2.25 0 00-1.084-1.924L9.166.33z"
        stroke-width="0"
      ></path>
      <path d="M29.5 7c-1.381 0-2.5 1.12-2.5 2.5 0 0.284 0.058 0.551 0.144 0.805l-6.094 5.247c-0.427-0.341-0.961-0.553-1.55-0.553-0.68 0-1.294 0.273-1.744 0.713l-4.774-2.39c-0.093-1.296-1.162-2.323-2.482-2.323-1.38 0-2.5 1.12-2.5 2.5 0 0.378 0.090 0.732 0.24 1.053l-4.867 5.612c-0.273-0.102-0.564-0.166-0.873-0.166-1.381 0-2.5 1.119-2.5 2.5s1.119 2.5 2.5 2.5c1.381 0 2.5-1.119 2.5-2.5 0-0.332-0.068-0.649-0.186-0.939l4.946-5.685c0.236 0.073 0.48 0.124 0.74 0.124 0.727 0 1.377-0.316 1.834-0.813l4.669 2.341c0.017 1.367 1.127 2.471 2.497 2.471 1.381 0 2.5-1.119 2.5-2.5 0-0.044-0.011-0.086-0.013-0.13l6.503-5.587c0.309 0.137 0.649 0.216 1.010 0.216 1.381 0 2.5-1.119 2.5-2.5s-1.119-2.5-2.5-2.5z"></path>
    </svg>