<svg width="0" height="0" viewBox="-9.6 -9.6 67.20 67.20" fill="mainColor">
      <path
        transform="translate(-9.6, -9.6), scale(4.2)"
        fill="backgroundColor"
        d="M9.66.33a2.25 2.25 0 00-2.332 0l-5.25 3.182A2.25 2.25 0 00.5 5.436v5.128a2.25 2.25 0 001.084 1.924l5.25 3.182a2.25 2.25 0 002.332 0l5.25-3.182a2.25 2.25 0 001.084-1.924V5.436a2.25 2.25 0 00-1.084-1.924L9.166.33z"
        stroke-width="0"
      ></path>
      <rect width="48" height="48" fill="none"></rect>
      <path d="M45.3,22.1h0C43.2,19.5,35.4,11,24,11S4.8,19.5,2.7,22.1a3,3,0,0,0,0,3.8C4.8,28.5,12.6,37,24,37s19.2-8.5,21.3-11.1A3,3,0,0,0,45.3,22.1ZM24,33c-8.8,0-15.3-6.2-17.7-9,2.4-2.8,8.9-9,17.7-9s15.3,6.2,17.7,9C39.3,26.8,32.8,33,24,33Z"></path>
      <circle cx="24" cy="24" r="6"></circle>
    </svg>