<?xml version="1.0" encoding="UTF-8"?>
<svg xmlns="http://www.w3.org/2000/svg" xmlns:xlink="http://www.w3.org/1999/xlink" width="0" height="0">
<defs>
<symbol viewBox="-4.8 -4.8 33.60 33.60" fill="transparent" id="addcard"><g  stroke-width="0"></g><g  stroke-linecap="round" stroke-linejoin="round"></g><g> <path fill-rule="evenodd" clip-rule="evenodd" d="M9.94358 3.25H14.0564C15.8942 3.24998 17.3498 3.24997 18.489 3.40314C19.6614 3.56076 20.6104 3.89288 21.3588 4.64124C22.1071 5.38961 22.4392 6.33856 22.5969 7.51098C22.6873 8.18385 22.7244 8.9671 22.7395 9.87428C22.7464 9.91516 22.75 9.95716 22.75 10C22.75 10.0353 22.7476 10.0699 22.7429 10.1039C22.75 10.6696 22.75 11.2818 22.75 11.9436V12.0564C22.75 13.8942 22.75 15.3498 22.5969 16.489C22.4392 17.6614 22.1071 18.6104 21.3588 19.3588C20.6104 20.1071 19.6614 20.4392 18.489 20.5969C17.3498 20.75 15.8942 20.75 14.0564 20.75H9.94359C8.10583 20.75 6.65019 20.75 5.51098 20.5969C4.33856 20.4392 3.38961 20.1071 2.64124 19.3588C1.89288 18.6104 1.56076 17.6614 1.40314 16.489C1.24997 15.3498 1.24998 13.8942 1.25 12.0564V11.9436C1.24999 11.2818 1.24999 10.6696 1.25714 10.1039C1.25243 10.0699 1.25 10.0352 1.25 10C1.25 9.95716 1.25359 9.91517 1.26049 9.87429C1.27564 8.96711 1.31267 8.18385 1.40314 7.51098C1.56076 6.33856 1.89288 5.38961 2.64124 4.64124C3.38961 3.89288 4.33856 3.56076 5.51098 3.40314C6.65019 3.24997 8.10582 3.24998 9.94358 3.25ZM2.75199 10.75C2.75009 11.1384 2.75 11.5541 2.75 12C2.75 13.9068 2.75159 15.2615 2.88976 16.2892C3.02502 17.2952 3.27869 17.8749 3.7019 18.2981C4.12511 18.7213 4.70476 18.975 5.71085 19.1102C6.73851 19.2484 8.09318 19.25 10 19.25H14C15.9068 19.25 17.2615 19.2484 18.2892 19.1102C19.2952 18.975 19.8749 18.7213 20.2981 18.2981C20.7213 17.8749 20.975 17.2952 21.1102 16.2892C21.2484 15.2615 21.25 13.9068 21.25 12C21.25 11.5541 21.2499 11.1384 21.248 10.75H2.75199ZM21.2239 9.25H2.77607C2.79564 8.66327 2.82987 8.15634 2.88976 7.71085C3.02502 6.70476 3.27869 6.12511 3.7019 5.7019C4.12511 5.27869 4.70476 5.02502 5.71085 4.88976C6.73851 4.75159 8.09318 4.75 10 4.75H14C15.9068 4.75 17.2615 4.75159 18.2892 4.88976C19.2952 5.02502 19.8749 5.27869 20.2981 5.7019C20.7213 6.12511 20.975 6.70476 21.1102 7.71085C21.1701 8.15634 21.2044 8.66327 21.2239 9.25ZM5.25 16C5.25 15.5858 5.58579 15.25 6 15.25H10C10.4142 15.25 10.75 15.5858 10.75 16C10.75 16.4142 10.4142 16.75 10 16.75H6C5.58579 16.75 5.25 16.4142 5.25 16ZM11.75 16C11.75 15.5858 12.0858 15.25 12.5 15.25H14C14.4142 15.25 14.75 15.5858 14.75 16C14.75 16.4142 14.4142 16.75 14 16.75H12.5C12.0858 16.75 11.75 16.4142 11.75 16Z" fill="#FFFFFF"></path> </g></symbol>
<symbol fill="#FFFFFF" viewBox="-4.8 -4.8 33.60 33.60" id="addplayer">
      <path         transform="translate(-4.8, -4.8), scale(2.1)"
        fill="transparent"
        d="M9.166.33a2.25 2.25 0 00-2.332 0l-5.25 3.182A2.25 2.25 0 00.5 5.436v5.128a2.25 2.25 0 001.084 1.924l5.25 3.182a2.25 2.25 0 002.332 0l5.25-3.182a2.25 2.25 0 001.084-1.924V5.436a2.25 2.25 0 00-1.084-1.924L9.166.33z"
        stroke-width="0"
      ></path>
      <path d="M2,21h8a1,1,0,0,0,0-2H3.071A7.011,7.011,0,0,1,10,13a5.044,5.044,0,1,0-3.377-1.337A9.01,9.01,0,0,0,1,20,1,1,0,0,0,2,21ZM10,5A3,3,0,1,1,7,8,3,3,0,0,1,10,5ZM23,16a1,1,0,0,1-1,1H19v3a1,1,0,0,1-2,0V17H14a1,1,0,0,1,0-2h3V12a1,1,0,0,1,2,0v3h3A1,1,0,0,1,23,16Z"></path>
    </symbol>
<symbol viewBox="-6.4 -6.4 44.80 44.80" fill="#FFFFFF" id="chart">
      <path       fill="transparent"
        transform="translate(-6.4, -6.4), scale(2.8)"
        d="M9.166.33a2.25 2.25 0 00-2.332 0l-5.25 3.182A2.25 2.25 0 00.5 5.436v5.128a2.25 2.25 0 001.084 1.924l5.25 3.182a2.25 2.25 0 002.332 0l5.25-3.182a2.25 2.25 0 001.084-1.924V5.436a2.25 2.25 0 00-1.084-1.924L9.166.33z"
        stroke-width="0"
      ></path>
      <path d="M29.5 7c-1.381 0-2.5 1.12-2.5 2.5 0 0.284 0.058 0.551 0.144 0.805l-6.094 5.247c-0.427-0.341-0.961-0.553-1.55-0.553-0.68 0-1.294 0.273-1.744 0.713l-4.774-2.39c-0.093-1.296-1.162-2.323-2.482-2.323-1.38 0-2.5 1.12-2.5 2.5 0 0.378 0.090 0.732 0.24 1.053l-4.867 5.612c-0.273-0.102-0.564-0.166-0.873-0.166-1.381 0-2.5 1.119-2.5 2.5s1.119 2.5 2.5 2.5c1.381 0 2.5-1.119 2.5-2.5 0-0.332-0.068-0.649-0.186-0.939l4.946-5.685c0.236 0.073 0.48 0.124 0.74 0.124 0.727 0 1.377-0.316 1.834-0.813l4.669 2.341c0.017 1.367 1.127 2.471 2.497 2.471 1.381 0 2.5-1.119 2.5-2.5 0-0.044-0.011-0.086-0.013-0.13l6.503-5.587c0.309 0.137 0.649 0.216 1.010 0.216 1.381 0 2.5-1.119 2.5-2.5s-1.119-2.5-2.5-2.5z"></path>
    </symbol>
<symbol viewBox="-4.8 -4.8 33.60 33.60" fill="transparent" id="clock">
<g  stroke-width="0"></g>
<g  stroke-linecap="round" stroke-linejoin="round">
</g><g> 
<path d="M3 5.5L5 3.5M21 5.5L19 3.5M9 12.5L11 14.5L15 10.5M20 12.5C20 16.9183 16.4183 20.5 12 20.5C7.58172 20.5 4 16.9183 4 12.5C4 8.08172 7.58172 4.5 12 4.5C16.4183 4.5 20 8.08172 20 12.5Z" stroke="#F9C74F" stroke-width="2" stroke-linecap="round" stroke-linejoin="round"></path>
 </g></symbol>
<symbol viewBox="0 0 24.00 24.00" fill="#727272" stroke="#727272" id="close">
    <path         id="Vector"
        d="M16 16L12 12M12 12L8 8M12 12L16 8M12 12L8 16"
        stroke="#727272"
        stroke-width="1"
        stroke-linecap="round"
        stroke-linejoin="round"
    ></path>
</symbol>
<symbol fill="" viewBox="-4.8 -4.8 33.60 33.60" id="delete">
      <path d="M1,20a1,1,0,0,0,1,1h8a1,1,0,0,0,0-2H3.071A7.011,7.011,0,0,1,10,13a5.044,5.044,0,1,0-3.377-1.337A9.01,9.01,0,0,0,1,20ZM10,5A3,3,0,1,1,7,8,3,3,0,0,1,10,5Zm12.707,9.707L20.414,17l2.293,2.293a1,1,0,1,1-1.414,1.414L19,18.414l-2.293,2.293a1,1,0,0,1-1.414-1.414L17.586,17l-2.293-2.293a1,1,0,0,1,1.414-1.414L19,15.586l2.293-2.293a1,1,0,0,1,1.414,1.414Z"></path>
    </symbol>
<symbol viewBox="-9.6 -9.6 67.20 67.20" fill="#FFFFFF" id="eyeclose">
      <path         transform="translate(-9.6, -9.6), scale(4.2)"
        fill="transparent"
        d="M9.166.33a2.25 2.25 0 00-2.332 0l-5.25 3.182A2.25 2.25 0 00.5 5.436v5.128a2.25 2.25 0 001.084 1.924l5.25 3.182a2.25 2.25 0 002.332 0l5.25-3.182a2.25 2.25 0 001.084-1.924V5.436a2.25 2.25 0 00-1.084-1.924L9.166.33z"
        stroke-width="0"
      ></path>
      <rect width="48" height="48" fill="none"></rect>
      <path d="M45.3,22.1C43.2,19.5,35.4,11,24,11a23.4,23.4,0,0,0-3.8.3L23.8,15H24c8.8,0,15.3,6.2,17.7,9a33.7,33.7,0,0,1-4.6,4.3l2.8,2.8a30.1,30.1,0,0,0,5.4-5.2A3,3,0,0,0,45.3,22.1Z"></path>
      <path d="M29.4,26.6A5.8,5.8,0,0,0,30,24a6,6,0,0,0-6-6,5.8,5.8,0,0,0-2.6.6L9.7,6.9A2,2,0,0,0,6.9,9.7l4.7,4.8a32.1,32.1,0,0,0-8.9,7.6,3,3,0,0,0,0,3.8C4.8,28.5,12.6,37,24,37a23,23,0,0,0,8.5-1.6l5.8,5.7a2,2,0,1,0,2.8-2.8ZM24,33c-8.8,0-15.3-6.2-17.7-9a29.7,29.7,0,0,1,8.3-6.6l4,4A5.8,5.8,0,0,0,18,24a6,6,0,0,0,6,6,5.8,5.8,0,0,0,2.6-.6l2.8,2.8A19.1,19.1,0,0,1,24,33Z"></path>
    </symbol>
<symbol viewBox="-9.6 -9.6 67.20 67.20" fill="#FFFFFF" id="eyeopen">
      <path         transform="translate(-9.6, -9.6), scale(4.2)"
        fill="transparent"
        d="M9.66.33a2.25 2.25 0 00-2.332 0l-5.25 3.182A2.25 2.25 0 00.5 5.436v5.128a2.25 2.25 0 001.084 1.924l5.25 3.182a2.25 2.25 0 002.332 0l5.25-3.182a2.25 2.25 0 001.084-1.924V5.436a2.25 2.25 0 00-1.084-1.924L9.166.33z"
        stroke-width="0"
      ></path>
      <rect width="48" height="48" fill="none"></rect>
      <path d="M45.3,22.1h0C43.2,19.5,35.4,11,24,11S4.8,19.5,2.7,22.1a3,3,0,0,0,0,3.8C4.8,28.5,12.6,37,24,37s19.2-8.5,21.3-11.1A3,3,0,0,0,45.3,22.1ZM24,33c-8.8,0-15.3-6.2-17.7-9,2.4-2.8,8.9-9,17.7-9s15.3,6.2,17.7,9C39.3,26.8,32.8,33,24,33Z"></path>
      <circle cx="24" cy="24" r="6"></circle>
    </symbol>
<symbol viewBox="0 0 50 50" id="github"><path style="fill:none;stroke:#FFFFFF;stroke-width:2;stroke-miterlimit:10;" d="M3,25c0,12.148,9.852,22,22,22s22-9.852,22-22S37.148,3,25,3S3,12.852,3,25z"></path><path style="fill:none;stroke:#FFFFFF;stroke-linecap:round;stroke-linejoin:round;stroke-miterlimit:10;" d="M38,25.655c4.51-0.282,7.58-0.017,9,0.163"></path><path style="fill:none;stroke:#FFFFFF;stroke-linecap:round;stroke-linejoin:round;stroke-miterlimit:10;" d="M37.401,27.519c5.169,0,8.498,0.675,9.699,0.967"></path><path style="fill:none;stroke:#FFFFFF;stroke-linecap:round;stroke-linejoin:round;stroke-miterlimit:10;" d="M3,25.802c1.42-0.181,4.49-0.445,9-0.163"></path><path style="fill:none;stroke:#FFFFFF;stroke-linecap:round;stroke-linejoin:round;stroke-miterlimit:10;" d="M2.999,28.476c1.199-0.292,4.528-0.968,9.701-0.968"></path><path style="fill:none;stroke:#FFFFFF;stroke-width:2;stroke-miterlimit:10;" d="M36.3,18.6c0.5-1.6,1.3-5.2-0.2-6.6c-2.7,0-4.6,1.3-5.5,2.1C29,13.4,27.1,13,25,13s-4,0.4-5.7,1.1c-0.9-0.8-2.8-2.1-5.5-2.1c-1.4,1.3-0.7,4.9-0.2,6.6c-1.1,1.5-1.7,3.3-1.7,5c0,5.5,4.2,9.4,13,9.4s13-3.9,13-9.4C38,21.8,37.4,20.1,36.3,18.6z"></path><path style="fill:none;stroke:#FFFFFF;stroke-width:2;stroke-miterlimit:10;" d="M19,39c0,0-3,0-3.6,0c-1.5,0-2.8-0.6-3.4-1.8c-0.7-1.3-1-3.5-2.8-4.7C8.9,32.3,9.1,32,9.7,32c0.6,0.1,1.9,0.9,2.7,2c0.9,1.1,1.8,2,3.4,2s3.8,0.1,4.5-0.7"></path><path style="fill:none;stroke:#FFFFFF;stroke-width:2;stroke-miterlimit:10;" d="M31,45.7v-6.1c0-2.7-1.9-6.5-4.5-6.5h-2.8c-2.6,0-4.7,3.8-4.7,6.5V46"></path></symbol>
<symbol viewBox="-9.6 -9.6 67.20 67.20" fill="none" id="load">
      <path         transform="translate(-9.6, -9.6), scale(4.2)"
        fill="transparent"
        d="M9.166.33a2.25 2.25 0 00-2.332 0l-5.25 3.182A2.25 2.25 0 00.5 5.436v5.128a2.25 2.25 0 001.084 1.924l5.25 3.182a2.25 2.25 0 002.332 0l5.25-3.182a2.25 2.25 0 001.084-1.924V5.436a2.25 2.25 0 00-1.084-1.924L9.166.33z"
        stroke-width="0"
      ></path>
      <rect width="0" height="0" fill="white" fill-opacity="0"></rect>
      <path         d="M11.6777 20.271C7.27476 21.3181 4 25.2766 4 30C4 35.5228 8.47715 40 14 40V40C14.9474 40 15.864 39.8683 16.7325 39.6221"
        stroke="#FFFFFF"
        stroke-width="4"
        stroke-linecap="round"
        stroke-linejoin="round"
      ></path>
      <path         d="M36.0547 20.271C40.4577 21.3181 43.7324 25.2766 43.7324 30C43.7324 35.5228 39.2553 40 33.7324 40V40C32.785 40 31.8684 39.8683 30.9999 39.6221"
        stroke="#FFFFFF"
        stroke-width="4"
        stroke-linecap="round"
        stroke-linejoin="round"
      ></path>
      <path         d="M36 20C36 13.3726 30.6274 8 24 8C17.3726 8 12 13.3726 12 20"
        stroke="#FFFFFF"
        stroke-width="4"
        stroke-linecap="round"
        stroke-linejoin="round"
      ></path>
      <path         d="M17.0654 30.119L23.9999 37.0764L31.1318 30"
        stroke="#FFFFFF"
        stroke-width="4"
        stroke-linecap="round"
        stroke-linejoin="round"
      ></path>
      <path         d="M24 20V33.5382"
        stroke="#FFFFFF"
        stroke-width="4"
        stroke-linecap="round"
        stroke-linejoin="round"
      ></path>
    </symbol>
<symbol viewBox="-4.8 -4.8 33.60 33.60" fill="none" id="menu">
      <path         transform="translate(-4.8, -4.8), scale(2.1)"
        fill="transparent"
        d="M9.166.33a2.25 2.25 0 00-2.332 0l-5.25 3.182A2.25 2.25 0 00.5 5.436v5.128a2.25 2.25 0 001.084 1.924l5.25 3.182a2.25 2.25 0 002.332 0l5.25-3.182a2.25 2.25 0 001.084-1.924V5.436a2.25 2.25 0 00-1.084-1.924L9.166.33z"
        stroke-width="0"
      ></path>
      <path         d="M4 12H20M4 8H20M4 16H12"
        stroke="#FFFFFF"
        stroke-width="2"
        stroke-linecap="round"
        stroke-linejoin="round"
      ></path>
    </symbol>
<symbol viewBox="-4.8 -4.8 33.60 33.60" fill="#FFFFFF" id="redo">
      <path         transform="translate(-4.8, -4.8), scale(2.1)"
        fill="transparent"
        d="M9.166.33a2.25 2.25 0 00-2.332 0l-5.25 3.182A2.25 2.25 0 00.5 5.436v5.128a2.25 2.25 0 001.084 1.924l5.25 3.182a2.25 2.25 0 002.332 0l5.25-3.182a2.25 2.25 0 001.084-1.924V5.436a2.25 2.25 0 00-1.084-1.924L9.166.33z"
        stroke-width="0"
      ></path>
      <path         fill-rule="evenodd"
        clip-rule="evenodd"
        d="M16.4697 3.46967C16.7626 3.17678 17.2374 3.17678 17.5303 3.46967L20.5303 6.46967C20.8232 6.76256 20.8232 7.23744 20.5303 7.53033L17.5303 10.5303C17.2374 10.8232 16.7626 10.8232 16.4697 10.5303C16.1768 10.2374 16.1768 9.76256 16.4697 9.46967L18.1893 7.75H9.00001C8.05159 7.75 7.39042 7.75072 6.8778 7.79718C6.37549 7.84271 6.0899 7.92737 5.875 8.05144C5.53296 8.24892 5.24893 8.53295 5.05145 8.87499C4.92738 9.0899 4.84271 9.37548 4.79718 9.87779C4.75072 10.3904 4.75 11.0516 4.75 12C4.75 12.9484 4.75072 13.6096 4.79718 14.1222C4.84271 14.6245 4.92737 14.9101 5.05144 15.125C5.24892 15.467 5.53296 15.7511 5.875 15.9486C6.0899 16.0726 6.37549 16.1573 6.87779 16.2028C7.39041 16.2493 8.05158 16.25 9 16.25H16C16.4142 16.25 16.75 16.5858 16.75 17C16.75 17.4142 16.4142 17.75 16 17.75H8.96423C8.05998 17.75 7.3307 17.75 6.7424 17.6967C6.13605 17.6417 5.60625 17.5254 5.125 17.2476C4.55493 16.9185 4.08154 16.4451 3.75241 15.875C3.47455 15.3937 3.35826 14.8639 3.3033 14.2576C3.24998 13.6693 3.24999 12.94 3.25 12.0358V11.9642C3.24999 11.06 3.24999 10.3307 3.30331 9.74239C3.35826 9.13604 3.47456 8.60624 3.75241 8.12499C4.08154 7.55492 4.55493 7.08154 5.125 6.75241C5.60625 6.47456 6.13605 6.35826 6.7424 6.3033C7.33069 6.24998 8.05997 6.24999 8.96421 6.25L18.1893 6.25L16.4697 4.53033C16.1768 4.23744 16.1768 3.76256 16.4697 3.46967Z"
        fill="#FFFFFF"
      ></path>
    </symbol>
<symbol viewBox="-8 -8 39.60 39.60" fill="none" id="reset">
      <path d="M15 12H9" stroke="#727272" stroke-width="1.5" stroke-linecap="round"></path>
      <path         d="M7 3.33782C8.47087 2.48697 10.1786 2 12 2C17.5228 2 22 6.47715 22 12C22 17.5228 17.5228 22 12 22C6.47715 22 2 17.5228 2 12C2 10.1786 2.48697 8.47087 3.33782 7"
        stroke="#727272"
        stroke-width="1.5"
        stroke-linecap="round"
      ></path>
    </symbol>
<symbol viewBox="-9.6 -9.6 67.20 67.20" fill="none" id="save">
      <path         transform="translate(-9.6, -9.6), scale(4.2)"
        fill="transparent"
        d="M9.166.33a2.25 2.25 0 00-2.332 0l-5.25 3.182A2.25 2.25 0 00.5 5.436v5.128a2.25 2.25 0 001.084 1.924l5.25 3.182a2.25 2.25 0 002.332 0l5.25-3.182a2.25 2.25 0 001.084-1.924V5.436a2.25 2.25 0 00-1.084-1.924L9.166.33z"
        stroke-width="0"
      ></path>
      <rect width="48" height="48" fill="white" fill-opacity="0"></rect>
      <path         d="M11.6777 20.271C7.27476 21.3181 4 25.2766 4 30C4 35.5228 8.47715 40 14 40C14.9474 40 15.864 39.8683 16.7325 39.6221"
        stroke="#FFFFFF"
        stroke-width="4"
        stroke-linecap="round"
        stroke-linejoin="round"
      ></path>
      <path         d="M36.0547 20.271C40.4577 21.3181 43.7324 25.2766 43.7324 30C43.7324 35.5228 39.2553 40 33.7324 40V40C32.785 40 31.8684 39.8683 30.9999 39.6221"
        stroke="#FFFFFF"
        stroke-width="4"
        stroke-linecap="round"
        stroke-linejoin="round"
      ></path>
      <path         d="M36 20C36 13.3726 30.6274 8 24 8C17.3726 8 12 13.3726 12 20"
        stroke="#FFFFFF"
        stroke-width="4"
        stroke-linecap="round"
        stroke-linejoin="round"
      ></path>
      <path         d="M17.0654 27.881L23.9999 20.9236L31.1318 28"
        stroke="#FFFFFF"
        stroke-width="4"
        stroke-linecap="round"
        stroke-linejoin="round"
      ></path>
      <path         d="M24 38V24.4618"
        stroke="#FFFFFF"
        stroke-width="4"
        stroke-linecap="round"
        stroke-linejoin="round"
      ></path>
    </symbol>
<symbol viewBox="-102.4 -102.4 716.80 716.80" fill="#F9C74F" id="star">
      <path         fill="#F9C74F"
        d="M256 38.013c-22.458 0-66.472 110.3-84.64 123.502-18.17 13.2-136.674 20.975-143.614 42.334-6.94 21.358 84.362 97.303 91.302 118.662 6.94 21.36-22.286 136.465-4.116 149.665 18.17 13.2 118.61-50.164 141.068-50.164 22.458 0 122.9 63.365 141.068 50.164 18.17-13.2-11.056-128.306-4.116-149.665 6.94-21.36 98.242-97.304 91.302-118.663-6.94-21.36-125.444-29.134-143.613-42.335-18.168-13.2-62.182-123.502-84.64-123.502z"
      ></path>
    </symbol>
<symbol fill="#FFFFFF" viewBox="-60.41 -60.41 422.88 422.88" id="theme">
      <path         transform="translate(-60.41, -60.41), scale(26.43)"
        fill="transparent"
        d="M9.166.33a2.25 2.25 0 00-2.332 0l-5.25 3.182A2.25 2.25 0 00.5 5.436v5.128a2.25 2.25 0 001.084 1.924l5.25 3.182a2.25 2.25 0 002.332 0l5.25-3.182a2.25 2.25 0 001.084-1.924V5.436a2.25 2.25 0 00-1.084-1.924L9.166.33z"
        stroke-width="0"
      ></path>
      <path d="M243.228,50.942c-3.627-5.713-11.727-6.427-16.512-1.647c-0.054,0.048-0.102,0.102-0.156,0.156 c-3.508,3.503-4.147,8.954-1.497,13.143c9.592,15.166,14.329,32.955,13.251,51.603c-1.352,23.369-12.779,45.037-30.069,60.819 c-14.211,12.966-23.32,30.268-25.89,48.738H117.18c-2.511-19.383-11.77-37.472-26.689-51.785 c-7.741-7.425-14.603-15.847-18.878-25.681C44.923,84.916,88.731,24.36,146.852,21.666c15.128-0.676,29.753,2.446,42.864,8.943 c4.013,1.99,8.857,1.057,12.028-2.108l0.156-0.156c5.247-5.236,3.621-13.964-3.02-17.247 c-16.234-8.02-34.313-11.883-53.019-10.965C83.516,3.024,34.386,59.278,43.04,123.649c3.305,24.586,15.563,47.156,33.24,64.569 c12.918,12.725,20.026,29.12,20.037,46.27c0.005,5.96,4.415,10.826,10.375,10.826h79.156c12.387,0,17.349-4.614,17.312-10.434 c-0.102-16.765,7.285-32.998,20.236-44.495c23.272-20.665,36.619-50.326,36.619-81.382 C260.02,88.044,254.14,68.13,243.228,50.942z"></path>
      <path d="M191.341,251.581h-85.036c-5.955,0-10.778,4.828-10.778,10.778c0,5.949,4.823,10.778,10.778,10.778h85.036 c5.955,0,10.778-4.828,10.778-10.778S197.296,251.581,191.341,251.581z"></path>
      <path d="M175.66,280.507h-53.674c-5.955,0-10.778,4.828-10.778,10.778c0,5.949,4.823,10.778,10.778,10.778h53.668 c5.955,0,10.778-4.828,10.778-10.778S181.615,280.507,175.66,280.507z"></path>
    </symbol>
<symbol viewBox="-4.8 -4.8 33.60 33.60" fill="transparent" id="undo">
      <path         transform="translate(-4.8, -4.8), scale(2.1)"
        fill="transparent"
        d="M9.166.33a2.25 2.25 0 00-2.332 0l-5.25 3.182A2.25 2.25 0 00.5 5.436v5.128a2.25 2.25 0 001.084 1.924l5.25 3.182a2.25 2.25 0 002.332 0l5.25-3.182a2.25 2.25 0 001.084-1.924V5.436a2.25 2.25 0 00-1.084-1.924L9.166.33z"
        stroke-width="0"
      ></path>
      <path         d="M4 7H15C17.7614 7 20 9.23857 20 12C20 14.7614 17.7614 17 15 17H8.00001M4 7L7 4M4 7L7 10"
        stroke="#FFFFFF"
        stroke-width="1.5"
        stroke-linecap="round"
        stroke-linejoin="round"
      ></path>
    </symbol>
</defs>
</svg>